<?xml version="1.0" standalone="no"?>
<!DOCTYPE svg PUBLIC "-//W3C//DTD SVG 20010904//EN"
 "http://www.w3.org/TR/2001/REC-SVG-20010904/DTD/svg10.dtd">
<svg version="1.0" xmlns="http://www.w3.org/2000/svg"
 width="656.000000pt" height="656.000000pt" viewBox="0 0 656.000000 656.000000"
 preserveAspectRatio="xMidYMid meet">
<metadata>
Created by potrace 1.14, written by Peter Selinger 2001-2017
</metadata>
<g transform="translate(0.000000,656.000000) scale(0.100000,-0.100000)"
fill="#000000" stroke="none">
<path d="M1405 6469 c-88 -13 -103 -16 -179 -34 -308 -73 -601 -246 -814 -482
-69 -76 -212 -278 -212 -300 0 -7 -4 -13 -10 -13 -5 0 -10 -6 -10 -12 0 -11
-16 -48 -66 -148 -14 -29 -37 -103 -65 -210 -22 -83 -25 -101 -36 -180 -10
-71 -10 -3537 -1 -3610 13 -90 19 -122 34 -184 39 -153 112 -333 168 -411 11
-16 20 -32 20 -35 -2 -7 72 -116 115 -170 48 -60 184 -197 246 -246 117 -94
275 -187 416 -243 81 -32 249 -79 308 -87 20 -2 56 -7 81 -12 58 -9 3687 -9
3760 0 68 9 133 21 180 34 14 3 33 7 43 7 9 1 17 6 17 11 0 5 3 7 6 4 6 -7
140 40 223 78 211 96 415 254 573 444 158 190 297 492 333 725 3 22 9 58 13
80 9 53 9 3546 0 3610 -15 99 -38 204 -56 255 -3 8 -7 23 -8 32 -9 43 -79 201
-130 292 -72 129 -148 229 -259 342 -91 93 -256 224 -281 224 -8 0 -14 4 -14
9 0 14 -230 124 -320 155 -75 25 -174 50 -240 61 -19 4 -48 9 -65 13 -46 10
-3702 11 -3770 1z"/>
</g>
</svg>
